# xmcd CD database file
#
# Track frame offsets:
#	150
#	12036
#	28301
#	45447
#	66320
#	79640
#	93044
#	109238
#	122470
#	134946
#	155642
#	173486
#	184576
#	196885
#	211253
#
# Disc length: 3023 seconds
#
# Revision: 2
# Processed by: cddbd v1.5.1PL0 Copyright (c) Steve Scherf et al.
# Submitted via: CDex 1.51
#
DISCID=c20bcd0f
DTITLE=Hank Williams, Jr. - The Complete Hank Williams, Jr.
DYEAR=1900
DGENRE=Country
TTITLE0=Gonna Go Huntin' Tonight
TTITLE1=Leave Them Boys Alone
TTITLE2=Queen Of My Heart
TTITLE3=Man Of Steel
TTITLE4=Attitude Adjustment
TTITLE5=All My Rowdy Friends Are Coming Over Tonight
TTITLE6=Major Moves
TTITLE7=I'm For Love
TTITLE8=This Ain't Dallas
TTITLE9=Ain't Misbehavin'
TTITLE10=Country State Of Mind
TTITLE11=Mind Your Own Business
TTITLE12=Born To Boogie
TTITLE13=Heaven Can't Be Found
TTITLE14=Young Country
EXTD=
EXTT0=
EXTT1=
EXTT2=
EXTT3=
EXTT4=
EXTT5=
EXTT6=
EXTT7=
EXTT8=
EXTT9=
EXTT10=
EXTT11=
EXTT12=
EXTT13=
EXTT14=
PLAYORDER=
